<svg width="56" height="56" viewBox="0 0 56 56" fill="none" xmlns="http://www.w3.org/2000/svg">
<path d="M42.0888 28.6333C42.0888 36.2945 35.8061 42.5462 28.0052 42.5462C20.2042 42.5462 13.9215 36.2945 13.9215 28.6333C13.9215 20.9721 20.2042 14.7204 28.0052 14.7204C35.8061 14.7204 42.0888 20.9721 42.0888 28.6333Z" stroke="#13033F" stroke-width="4.60014"/>
<path d="M27.4268 0L27.4268 13.0951" stroke="#13033F" stroke-width="4.60014"/>
<line x1="27.4025" y1="42.3213" x2="27.4025" y2="55.4164" stroke="#13033F" stroke-width="4.60014"/>
<line x1="13.233" y1="27.6009" x2="4.48227e-05" y2="27.6009" stroke="#13033F" stroke-width="4.60014"/>
<line x1="56" y1="28.5209" x2="42.767" y2="28.5209" stroke="#13033F" stroke-width="4.60014"/>
<line y1="-2.30007" x2="13.1599" y2="-2.30007" transform="matrix(-0.688304 -0.725423 0.73258 -0.680681 49.5006 45.4276)" stroke="#13033F" stroke-width="4.60014"/>
<line y1="-2.30007" x2="13.1523" y2="-2.30007" transform="matrix(-0.647352 0.762192 -0.768832 -0.639451 15.4871 36.3411)" stroke="#13033F" stroke-width="4.60014"/>
<path d="M49.6501 10.1203L39.5131 18.5376" stroke="#13033F" stroke-width="4.60014"/>
<path d="M15.7153 18.9977L5.57827 10.5803" stroke="#13033F" stroke-width="4.60014"/>
</svg>
