<svg width="33" height="35" viewBox="0 0 33 35" fill="none" xmlns="http://www.w3.org/2000/svg">
<path fill-rule="evenodd" clip-rule="evenodd" d="M24.9455 13.5121C24.9455 19.8266 19.8266 24.9455 13.5121 24.9455C7.19766 24.9455 2.07879 19.8266 2.07879 13.5121C2.07879 7.19766 7.19766 2.07879 13.5121 2.07879C19.8266 2.07879 24.9455 7.19766 24.9455 13.5121ZM21.4694 24.4339C19.2373 26.0629 16.487 27.0242 13.5121 27.0242C6.04958 27.0242 0 20.9747 0 13.5121C0 6.04958 6.04958 0 13.5121 0C20.9747 0 27.0242 6.04958 27.0242 13.5121C27.0242 17.2496 25.5068 20.6327 23.0543 23.0789L32.9168 32.9414L31.4469 34.4113L21.4694 24.4339Z" fill="black" fill-opacity="0.8"/>
</svg>
